<svg width="275" height="275" viewBox="0 0 275 275" fill="none" xmlns="http://www.w3.org/2000/svg">
<path d="M144.375 239.892H129.479C127.253 239.896 125.088 239.163 123.322 237.807C121.556 236.451 120.288 234.55 119.717 232.398L110.848 199.936L82.2021 216.379C80.2815 217.474 78.0561 217.912 75.8638 217.627C73.6716 217.341 71.6325 216.348 70.0563 214.798L59.4573 204.268C57.8789 202.695 56.8629 200.646 56.5667 198.438C56.2705 196.23 56.7105 193.986 57.8188 192.053L74.651 162.892L74.5823 162.708L42.6479 154.149C40.4983 153.578 38.5978 152.312 37.2424 150.548C35.8871 148.785 35.1529 146.622 35.1542 144.398V129.479C35.1541 127.26 35.8861 125.103 37.2368 123.342C38.5876 121.581 40.4815 120.315 42.625 119.74L75.1552 110.837L58.6667 82.1677C57.5687 80.2417 57.1322 78.0089 57.424 75.8111C57.7158 73.6134 58.7198 71.5718 60.2823 69.999L70.801 59.4802C72.3717 57.9186 74.4105 56.9141 76.6058 56.6202C78.8011 56.3264 81.0323 56.7595 82.9583 57.8532L112.2 74.6396H112.338L120.874 42.6709C121.443 40.5191 122.708 38.616 124.472 37.2584C126.236 35.9009 128.399 35.165 130.625 35.1657H145.521C147.749 35.1625 149.915 35.8972 151.681 37.2549C153.447 38.6127 154.714 40.5172 155.283 42.6709L164.015 75.1896L192.764 58.6782C194.682 57.5843 196.906 57.1468 199.096 57.4322C201.286 57.7176 203.323 58.7103 204.898 60.2594L215.508 70.7896C217.093 72.3614 218.111 74.4144 218.403 76.6269C218.695 78.8393 218.246 81.0863 217.124 83.0157L200.326 112.028L200.418 112.28L232.341 120.828C234.488 121.402 236.386 122.668 237.739 124.432C239.092 126.195 239.825 128.356 239.823 130.579V145.475C239.827 147.701 239.094 149.866 237.738 151.632C236.383 153.398 234.481 154.666 232.329 155.238L199.822 164.106L216.31 192.809C217.421 194.734 217.864 196.971 217.572 199.174C217.28 201.377 216.268 203.421 214.695 204.99L204.187 215.497C202.609 217.054 200.566 218.053 198.368 218.345C196.17 218.637 193.937 218.204 192.007 217.113L162.915 200.36L162.708 200.521L154.172 232.432C153.584 234.578 152.306 236.471 150.535 237.819C148.765 239.167 146.6 239.895 144.375 239.892ZM130.51 228.433H143.332L151.789 196.854C152.204 195.333 152.966 193.928 154.016 192.751C155.066 191.574 156.374 190.657 157.839 190.071L159.374 189.475C160.78 188.916 162.295 188.684 163.803 188.797C165.312 188.91 166.775 189.366 168.082 190.128L196.843 206.685L205.883 197.645L189.578 169.251C188.804 167.904 188.352 166.397 188.257 164.847C188.161 163.296 188.425 161.745 189.028 160.314L189.624 158.881C190.219 157.461 191.132 156.196 192.292 155.183C193.451 154.17 194.828 153.436 196.316 153.038L228.399 144.455V131.622L196.831 123.177C195.309 122.761 193.903 121.997 192.726 120.945C191.549 119.893 190.632 118.582 190.048 117.116L189.452 115.603C188.896 114.191 188.666 112.671 188.779 111.157C188.892 109.643 189.345 108.175 190.105 106.86L206.708 78.123L197.542 69.0709L169.125 85.399C167.793 86.1657 166.304 86.618 164.771 86.7213C163.238 86.8246 161.702 86.5761 160.279 85.9948L158.961 85.4563C157.524 84.8606 156.241 83.9438 155.212 82.7759C154.184 81.6081 153.436 80.2203 153.026 78.7188L144.455 46.5667H131.679L123.223 78.2146C122.816 79.7699 122.043 81.2054 120.969 82.4013C119.895 83.5973 118.55 84.519 117.047 85.0896L115.672 85.6052C114.279 86.1463 112.783 86.3675 111.294 86.2525C109.804 86.1375 108.36 85.6891 107.067 84.9407L78.1688 68.3146L69.1281 77.3552L85.4219 105.726C86.1928 107.085 86.6413 108.603 86.7327 110.162C86.8241 111.722 86.5559 113.281 85.949 114.721L85.3646 116.096C84.7612 117.489 83.8513 118.727 82.7025 119.719C81.5538 120.711 80.1959 121.431 78.7302 121.825L46.6469 130.51V143.355L78.2375 151.811C79.7534 152.225 81.1533 152.983 82.328 154.026C83.5027 155.07 84.4203 156.371 85.0094 157.827L85.5594 159.214C86.1404 160.634 86.3857 162.168 86.2764 163.699C86.1671 165.229 85.7061 166.714 84.9292 168.036L68.2688 196.866L77.4354 205.929L105.737 189.67C107.097 188.889 108.62 188.435 110.185 188.346C111.751 188.256 113.316 188.533 114.755 189.154L115.97 189.658C117.438 190.23 118.75 191.142 119.798 192.32C120.845 193.497 121.599 194.905 121.997 196.43L130.51 228.433Z" fill="black"/>
<path d="M137.5 171.875C130.701 171.875 124.055 169.859 118.402 166.082C112.749 162.305 108.343 156.936 105.742 150.655C103.14 144.374 102.459 137.462 103.786 130.794C105.112 124.126 108.386 118.001 113.193 113.193C118.001 108.386 124.126 105.112 130.794 103.786C137.462 102.459 144.374 103.14 150.655 105.742C156.936 108.343 162.305 112.749 166.082 118.402C169.859 124.055 171.875 130.701 171.875 137.5C171.875 146.617 168.253 155.36 161.807 161.807C155.36 168.253 146.617 171.875 137.5 171.875ZM137.5 114.583C132.968 114.583 128.537 115.927 124.768 118.446C121 120.964 118.062 124.543 116.328 128.73C114.593 132.918 114.139 137.525 115.024 141.971C115.908 146.416 118.091 150.5 121.295 153.705C124.5 156.909 128.584 159.092 133.029 159.976C137.475 160.861 142.082 160.407 146.27 158.672C150.457 156.938 154.036 154 156.555 150.232C159.073 146.463 160.417 142.033 160.417 137.5C160.417 131.422 158.002 125.593 153.705 121.295C149.407 116.998 143.578 114.583 137.5 114.583Z" fill="black"/>
</svg>
